<svg xmlns="http://www.w3.org/2000/svg" width="100" height="100" viewBox="0 0 100 100">
  <defs>
    <pattern id="pattern" width="100" height="100" patternUnits="userSpaceOnUse">
      <circle cx="10" cy="10" r="1.5" fill="#00ccbc" opacity="0.5" />
      <circle cx="30" cy="10" r="1" fill="#00ccbc" opacity="0.3" />
      <circle cx="50" cy="10" r="2" fill="#00ccbc" opacity="0.5" />
      <circle cx="70" cy="10" r="1" fill="#00ccbc" opacity="0.3" />
      <circle cx="90" cy="10" r="1.5" fill="#00ccbc" opacity="0.5" />
      
      <circle cx="10" cy="30" r="1" fill="#00ccbc" opacity="0.3" />
      <circle cx="30" cy="30" r="2" fill="#00ccbc" opacity="0.5" />
      <circle cx="50" cy="30" r="1" fill="#00ccbc" opacity="0.3" />
      <circle cx="70" cy="30" r="2" fill="#00ccbc" opacity="0.5" />
      <circle cx="90" cy="30" r="1" fill="#00ccbc" opacity="0.3" />
      
      <circle cx="10" cy="50" r="2" fill="#00ccbc" opacity="0.5" />
      <circle cx="30" cy="50" r="1" fill="#00ccbc" opacity="0.3" />
      <circle cx="50" cy="50" r="1.5" fill="#00ccbc" opacity="0.5" />
      <circle cx="70" cy="50" r="1" fill="#00ccbc" opacity="0.3" />
      <circle cx="90" cy="50" r="2" fill="#00ccbc" opacity="0.5" />
      
      <circle cx="10" cy="70" r="1" fill="#00ccbc" opacity="0.3" />
      <circle cx="30" cy="70" r="2" fill="#00ccbc" opacity="0.5" />
      <circle cx="50" cy="70" r="1" fill="#00ccbc" opacity="0.3" />
      <circle cx="70" cy="70" r="1.5" fill="#00ccbc" opacity="0.5" />
      <circle cx="90" cy="70" r="1" fill="#00ccbc" opacity="0.3" />
      
      <circle cx="10" cy="90" r="1.5" fill="#00ccbc" opacity="0.5" />
      <circle cx="30" cy="90" r="1" fill="#00ccbc" opacity="0.3" />
      <circle cx="50" cy="90" r="2" fill="#00ccbc" opacity="0.5" />
      <circle cx="70" cy="90" r="1" fill="#00ccbc" opacity="0.3" />
      <circle cx="90" cy="90" r="1.5" fill="#00ccbc" opacity="0.5" />
      
      <path d="M0,20 L100,20" stroke="#00ccbc" stroke-width="0.5" opacity="0.1" />
      <path d="M0,40 L100,40" stroke="#00ccbc" stroke-width="0.5" opacity="0.1" />
      <path d="M0,60 L100,60" stroke="#00ccbc" stroke-width="0.5" opacity="0.1" />
      <path d="M0,80 L100,80" stroke="#00ccbc" stroke-width="0.5" opacity="0.1" />
      
      <path d="M20,0 L20,100" stroke="#00ccbc" stroke-width="0.5" opacity="0.1" />
      <path d="M40,0 L40,100" stroke="#00ccbc" stroke-width="0.5" opacity="0.1" />
      <path d="M60,0 L60,100" stroke="#00ccbc" stroke-width="0.5" opacity="0.1" />
      <path d="M80,0 L80,100" stroke="#00ccbc" stroke-width="0.5" opacity="0.1" />
    </pattern>
  </defs>
  
  <rect width="100" height="100" fill="url(#pattern)" />
</svg> 